<svg width="277" height="242" viewBox="0 0 277 242" fill="none" xmlns="http://www.w3.org/2000/svg">
<path d="M167.701 60.6746C165.185 58.1509 160.87 59.9304 160.87 63.4916V118.089C160.87 120.717 163.368 122.629 165.909 121.944L208.914 110.359C211.692 109.611 214.658 110.411 216.681 112.453L227.515 123.392C229.671 125.569 228.672 129.261 225.711 130.056L141.952 152.492C140.596 152.855 139.169 152.855 137.814 152.493L53.8932 130.062C50.9355 129.264 49.9396 125.576 52.0942 123.4L62.9298 112.46C64.9565 110.414 67.9288 109.615 70.7098 110.37L113.176 121.891C115.718 122.581 118.221 120.669 118.221 118.038V63.2862C118.221 59.7208 113.898 57.9432 111.385 60.4752L31.2635 141.193C27.9462 144.535 26.2875 146.206 24.124 146.748C21.9606 147.289 19.7089 146.597 15.2057 145.214L11.1092 143.955C5.45867 142.218 2.63343 141.35 2.08606 139.165C1.53869 136.981 3.62149 134.886 7.78705 130.696L133.72 4.02764C136.388 1.34353 137.723 0.00147857 139.385 1.19554e-06C141.047 -0.00146095 142.383 1.33823 145.057 4.01762L270.951 130.2C275.324 134.583 277.51 136.774 276.899 139.006C276.289 141.238 273.29 142.014 267.294 143.567L262.69 144.759C258.357 145.881 256.191 146.442 254.137 145.881C252.082 145.32 250.503 143.736 247.345 140.568L167.701 60.6746Z" fill="url(#paint0_linear_65_2)"/>
<path d="M143.384 154.251L229.722 131.236C232.516 130.491 235.495 131.311 237.512 133.381L247.018 143.133C249.146 145.316 248.141 148.979 245.195 149.773L145.456 176.642C142.915 177.327 140.417 175.416 140.417 172.788L140.417 158.109C140.417 156.3 141.634 154.718 143.384 154.251Z" fill="url(#paint1_linear_65_2)"/>
<path d="M135.457 154.248L49.6444 131.244C46.8475 130.494 43.8632 131.314 41.8431 133.386L32.3358 143.139C30.2092 145.321 31.212 148.982 34.1545 149.778L133.375 176.635C135.916 177.323 138.418 175.411 138.418 172.781L138.418 158.105C138.418 156.298 137.203 154.717 135.457 154.248Z" fill="url(#paint2_linear_65_2)"/>
<path d="M135.456 154.248L49.6455 131.244C46.848 130.494 43.8626 131.315 41.8403 133.389L32.3459 143.129C30.2155 145.315 31.2176 148.983 34.1628 149.78L133.37 176.633C135.914 177.322 138.418 175.406 138.418 172.771L138.418 158.109C138.418 156.3 137.204 154.716 135.456 154.248Z" fill="#19666C" fill-opacity="0.32"/>
<path d="M133.72 4.02756C136.388 1.3435 137.723 0.00146904 139.385 0L139.874 150.432C139.879 151.75 138.63 152.711 137.358 152.371L53.8932 130.062C50.9355 129.264 49.9396 125.576 52.0942 123.4L62.9298 112.46C64.9564 110.414 67.9288 109.615 70.7098 110.37L113.176 121.891C115.718 122.581 118.221 120.669 118.221 118.038V63.2955C118.221 59.7248 113.898 57.9434 111.383 60.4776L31.2635 141.193C27.9462 144.535 26.2875 146.206 24.124 146.748C21.9605 147.289 19.7088 146.597 15.2054 145.214L15.2052 145.213L11.1092 143.955C5.45867 142.218 2.63343 141.35 2.08606 139.165C1.53869 136.981 3.62149 134.886 7.78705 130.696L133.72 4.02764L133.72 4.02756Z" fill="#19666C" fill-opacity="0.32"/>
<path d="M14.0813 217.416C14.0813 218.76 13.8533 220.032 13.3973 221.232C12.9413 222.432 12.3053 223.476 11.4893 224.364C10.6733 225.276 9.68931 225.996 8.53731 226.524C7.40931 227.052 6.14931 227.316 4.75731 227.316H0.797312L0.185312 220.404H3.96531C5.26131 220.404 6.17331 220.14 6.70131 219.612C7.25331 219.084 7.52931 218.424 7.52931 217.632V206.112H14.0813V217.416ZM14.0813 204.132H7.52931V199.2H14.0813V204.132ZM16.2388 197.04H22.7908V219H16.2388V197.04ZM28.1565 204.744L33.0885 199.992L39.4245 207.732C40.3365 208.812 40.9245 209.784 41.1885 210.648C41.4765 211.512 41.6205 212.316 41.6205 213.06C41.6205 213.876 41.4765 214.644 41.1885 215.364C40.9245 216.084 40.5165 216.72 39.9645 217.272C39.4125 217.8 38.7045 218.22 37.8405 218.532C37.0005 218.844 36.0045 219 34.8525 219H25.3485L24.7725 212.052H33.0885C33.4725 212.052 33.6645 211.896 33.6645 211.584C33.6645 211.368 33.5325 211.092 33.2685 210.756L28.1565 204.744ZM50.7141 211.548C50.7141 211.884 50.9061 212.052 51.2901 212.052H52.6581C52.8021 212.052 52.9221 212.088 53.0181 212.16C53.1381 212.208 53.2221 212.34 53.2701 212.556C53.3421 212.772 53.3901 213.108 53.4141 213.564C53.4381 214.02 53.4501 214.644 53.4501 215.436C53.4501 216.276 53.4381 216.936 53.4141 217.416C53.3901 217.896 53.3421 218.256 53.2701 218.496C53.2221 218.736 53.1381 218.88 53.0181 218.928C52.9221 218.976 52.8021 219 52.6581 219H52.0821C51.5061 219 51.0021 218.964 50.5701 218.892C50.4261 220.068 50.1021 221.16 49.5981 222.168C49.0941 223.2 48.4461 224.088 47.6541 224.832C46.8621 225.6 45.9261 226.2 44.8461 226.632C43.7901 227.088 42.6381 227.316 41.3901 227.316H37.4301L36.8181 220.404H40.5981C41.8941 220.404 42.8061 220.14 43.3341 219.612C43.8861 219.084 44.1621 218.424 44.1621 217.632V206.112H50.7141V211.548ZM58.608 212.052C58.752 212.052 58.872 212.088 58.968 212.16C59.088 212.208 59.172 212.34 59.22 212.556C59.292 212.772 59.34 213.108 59.364 213.564C59.388 214.02 59.4 214.644 59.4 215.436C59.4 216.276 59.388 216.936 59.364 217.416C59.34 217.896 59.292 218.256 59.22 218.496C59.172 218.736 59.088 218.88 58.968 218.928C58.872 218.976 58.752 219 58.608 219H52.668C52.524 219 52.404 218.976 52.308 218.928C52.188 218.88 52.104 218.748 52.056 218.532C51.984 218.292 51.936 217.944 51.912 217.488C51.888 217.032 51.876 216.408 51.876 215.616C51.876 214.776 51.888 214.116 51.912 213.636C51.936 213.156 51.984 212.808 52.056 212.592C52.104 212.352 52.188 212.208 52.308 212.16C52.404 212.088 52.524 212.052 52.668 212.052H58.608ZM64.5494 212.052C64.6934 212.052 64.8134 212.088 64.9094 212.16C65.0294 212.208 65.1134 212.34 65.1614 212.556C65.2334 212.772 65.2814 213.108 65.3054 213.564C65.3294 214.02 65.3414 214.644 65.3414 215.436C65.3414 216.276 65.3294 216.936 65.3054 217.416C65.2814 217.896 65.2334 218.256 65.1614 218.496C65.1134 218.736 65.0294 218.88 64.9094 218.928C64.8134 218.976 64.6934 219 64.5494 219H58.6094C58.4654 219 58.3454 218.976 58.2494 218.928C58.1294 218.88 58.0454 218.748 57.9974 218.532C57.9254 218.292 57.8774 217.944 57.8534 217.488C57.8294 217.032 57.8174 216.408 57.8174 215.616C57.8174 214.776 57.8294 214.116 57.8534 213.636C57.8774 213.156 57.9254 212.808 57.9974 212.592C58.0454 212.352 58.1294 212.208 58.2494 212.16C58.3454 212.088 58.4654 212.052 58.6094 212.052H64.5494ZM70.4908 212.052C70.6348 212.052 70.7548 212.088 70.8508 212.16C70.9708 212.208 71.0548 212.34 71.1028 212.556C71.1748 212.772 71.2228 213.108 71.2468 213.564C71.2708 214.02 71.2828 214.644 71.2828 215.436C71.2828 216.276 71.2708 216.936 71.2468 217.416C71.2228 217.896 71.1748 218.256 71.1028 218.496C71.0548 218.736 70.9708 218.88 70.8508 218.928C70.7548 218.976 70.6348 219 70.4908 219H64.5508C64.4068 219 64.2868 218.976 64.1908 218.928C64.0708 218.88 63.9868 218.748 63.9388 218.532C63.8668 218.292 63.8188 217.944 63.7948 217.488C63.7708 217.032 63.7588 216.408 63.7588 215.616C63.7588 214.776 63.7708 214.116 63.7948 213.636C63.8188 213.156 63.8668 212.808 63.9388 212.592C63.9868 212.352 64.0708 212.208 64.1908 212.16C64.2868 212.088 64.4068 212.052 64.5508 212.052H70.4908ZM76.4322 212.052C76.5762 212.052 76.6962 212.088 76.7922 212.16C76.9122 212.208 76.9962 212.34 77.0442 212.556C77.1162 212.772 77.1642 213.108 77.1882 213.564C77.2122 214.02 77.2242 214.644 77.2242 215.436C77.2242 216.276 77.2122 216.936 77.1882 217.416C77.1642 217.896 77.1162 218.256 77.0442 218.496C76.9962 218.736 76.9122 218.88 76.7922 218.928C76.6962 218.976 76.5762 219 76.4322 219H70.4922C70.3482 219 70.2282 218.976 70.1322 218.928C70.0122 218.88 69.9282 218.748 69.8802 218.532C69.8082 218.292 69.7602 217.944 69.7362 217.488C69.7122 217.032 69.7002 216.408 69.7002 215.616C69.7002 214.776 69.7122 214.116 69.7362 213.636C69.7602 213.156 69.8082 212.808 69.8802 212.592C69.9282 212.352 70.0122 212.208 70.1322 212.16C70.2282 212.088 70.3482 212.052 70.4922 212.052H76.4322ZM82.3736 212.052C82.5176 212.052 82.6376 212.088 82.7336 212.16C82.8536 212.208 82.9376 212.34 82.9856 212.556C83.0576 212.772 83.1056 213.108 83.1296 213.564C83.1536 214.02 83.1656 214.644 83.1656 215.436C83.1656 216.276 83.1536 216.936 83.1296 217.416C83.1056 217.896 83.0576 218.256 82.9856 218.496C82.9376 218.736 82.8536 218.88 82.7336 218.928C82.6376 218.976 82.5176 219 82.3736 219H76.4336C76.2896 219 76.1696 218.976 76.0736 218.928C75.9536 218.88 75.8696 218.748 75.8216 218.532C75.7496 218.292 75.7016 217.944 75.6776 217.488C75.6536 217.032 75.6416 216.408 75.6416 215.616C75.6416 214.776 75.6536 214.116 75.6776 213.636C75.7016 213.156 75.7496 212.808 75.8216 212.592C75.8696 212.352 75.9536 212.208 76.0736 212.16C76.1696 212.088 76.2896 212.052 76.4336 212.052H82.3736ZM88.315 212.052C88.459 212.052 88.579 212.088 88.675 212.16C88.795 212.208 88.879 212.34 88.927 212.556C88.999 212.772 89.047 213.108 89.071 213.564C89.095 214.02 89.107 214.644 89.107 215.436C89.107 216.276 89.095 216.936 89.071 217.416C89.047 217.896 88.999 218.256 88.927 218.496C88.879 218.736 88.795 218.88 88.675 218.928C88.579 218.976 88.459 219 88.315 219H82.375C82.231 219 82.111 218.976 82.015 218.928C81.895 218.88 81.811 218.748 81.763 218.532C81.691 218.292 81.643 217.944 81.619 217.488C81.595 217.032 81.583 216.408 81.583 215.616C81.583 214.776 81.595 214.116 81.619 213.636C81.643 213.156 81.691 212.808 81.763 212.592C81.811 212.352 81.895 212.208 82.015 212.16C82.111 212.088 82.231 212.052 82.375 212.052H88.315ZM94.2564 212.052C94.4004 212.052 94.5204 212.088 94.6164 212.16C94.7364 212.208 94.8204 212.34 94.8684 212.556C94.9404 212.772 94.9884 213.108 95.0124 213.564C95.0364 214.02 95.0484 214.644 95.0484 215.436C95.0484 216.276 95.0364 216.936 95.0124 217.416C94.9884 217.896 94.9404 218.256 94.8684 218.496C94.8204 218.736 94.7364 218.88 94.6164 218.928C94.5204 218.976 94.4004 219 94.2564 219H88.3164C88.1724 219 88.0524 218.976 87.9564 218.928C87.8364 218.88 87.7524 218.748 87.7044 218.532C87.6324 218.292 87.5844 217.944 87.5604 217.488C87.5364 217.032 87.5244 216.408 87.5244 215.616C87.5244 214.776 87.5364 214.116 87.5604 213.636C87.5844 213.156 87.6324 212.808 87.7044 212.592C87.7524 212.352 87.8364 212.208 87.9564 212.16C88.0524 212.088 88.1724 212.052 88.3164 212.052H94.2564ZM96.4538 212.052C96.5978 212.052 96.7298 212.004 96.8498 211.908C96.9698 211.788 97.0298 211.644 97.0298 211.476V206.112H103.546V212.052C103.546 213.204 103.378 214.212 103.042 215.076C102.73 215.94 102.286 216.66 101.71 217.236C101.134 217.812 100.438 218.256 99.6218 218.568C98.8298 218.856 97.9658 219 97.0298 219H94.2578C94.1138 219 93.9938 218.976 93.8978 218.928C93.7778 218.88 93.6938 218.748 93.6458 218.532C93.5738 218.292 93.5258 217.944 93.5018 217.488C93.4778 217.032 93.4658 216.408 93.4658 215.616C93.4658 214.776 93.4778 214.116 93.5018 213.636C93.5258 213.156 93.5738 212.808 93.6458 212.592C93.6938 212.352 93.7778 212.208 93.8978 212.16C93.9938 212.088 94.1138 212.052 94.2578 212.052H96.4538ZM101.962 231.852H96.8138V226.884H101.962V231.852ZM104.554 225.912H94.2578V220.944H104.554V225.912ZM108.696 220.404C109.992 220.404 110.904 220.14 111.432 219.612C111.984 219.084 112.26 218.424 112.26 217.632V206.112H118.812V211.548C118.812 211.884 119.004 212.052 119.388 212.052H120.756C120.9 212.052 121.02 212.088 121.116 212.16C121.236 212.208 121.32 212.34 121.368 212.556C121.44 212.772 121.488 213.108 121.512 213.564C121.536 214.02 121.548 214.644 121.548 215.436C121.548 216.276 121.536 216.936 121.512 217.416C121.488 217.896 121.44 218.256 121.368 218.496C121.32 218.736 121.236 218.88 121.116 218.928C121.02 218.976 120.9 219 120.756 219H120.18C119.604 219 119.1 218.964 118.668 218.892C118.524 220.068 118.2 221.16 117.696 222.168C117.192 223.2 116.544 224.088 115.752 224.832C114.96 225.6 114.024 226.2 112.944 226.632C111.888 227.088 110.724 227.316 109.452 227.316H107.688L107.112 220.404H108.696ZM126.706 212.052C126.85 212.052 126.97 212.088 127.066 212.16C127.186 212.208 127.27 212.34 127.318 212.556C127.39 212.772 127.438 213.108 127.462 213.564C127.486 214.02 127.498 214.644 127.498 215.436C127.498 216.276 127.486 216.936 127.462 217.416C127.438 217.896 127.39 218.256 127.318 218.496C127.27 218.736 127.186 218.88 127.066 218.928C126.97 218.976 126.85 219 126.706 219H120.766C120.622 219 120.502 218.976 120.406 218.928C120.286 218.88 120.202 218.748 120.154 218.532C120.082 218.292 120.034 217.944 120.01 217.488C119.986 217.032 119.974 216.408 119.974 215.616C119.974 214.776 119.986 214.116 120.01 213.636C120.034 213.156 120.082 212.808 120.154 212.592C120.202 212.352 120.286 212.208 120.406 212.16C120.502 212.088 120.622 212.052 120.766 212.052H126.706ZM132.647 212.052C132.791 212.052 132.911 212.088 133.007 212.16C133.127 212.208 133.211 212.34 133.259 212.556C133.331 212.772 133.379 213.108 133.403 213.564C133.427 214.02 133.439 214.644 133.439 215.436C133.439 216.276 133.427 216.936 133.403 217.416C133.379 217.896 133.331 218.256 133.259 218.496C133.211 218.736 133.127 218.88 133.007 218.928C132.911 218.976 132.791 219 132.647 219H126.707C126.563 219 126.443 218.976 126.347 218.928C126.227 218.88 126.143 218.748 126.095 218.532C126.023 218.292 125.975 217.944 125.951 217.488C125.927 217.032 125.915 216.408 125.915 215.616C125.915 214.776 125.927 214.116 125.951 213.636C125.975 213.156 126.023 212.808 126.095 212.592C126.143 212.352 126.227 212.208 126.347 212.16C126.443 212.088 126.563 212.052 126.707 212.052H132.647ZM138.588 212.052C138.732 212.052 138.852 212.088 138.948 212.16C139.068 212.208 139.152 212.34 139.2 212.556C139.272 212.772 139.32 213.108 139.344 213.564C139.368 214.02 139.38 214.644 139.38 215.436C139.38 216.276 139.368 216.936 139.344 217.416C139.32 217.896 139.272 218.256 139.2 218.496C139.152 218.736 139.068 218.88 138.948 218.928C138.852 218.976 138.732 219 138.588 219H132.648C132.504 219 132.384 218.976 132.288 218.928C132.168 218.88 132.084 218.748 132.036 218.532C131.964 218.292 131.916 217.944 131.892 217.488C131.868 217.032 131.856 216.408 131.856 215.616C131.856 214.776 131.868 214.116 131.892 213.636C131.916 213.156 131.964 212.808 132.036 212.592C132.084 212.352 132.168 212.208 132.288 212.16C132.384 212.088 132.504 212.052 132.648 212.052H138.588ZM144.53 212.052C144.674 212.052 144.794 212.088 144.89 212.16C145.01 212.208 145.094 212.34 145.142 212.556C145.214 212.772 145.262 213.108 145.286 213.564C145.31 214.02 145.322 214.644 145.322 215.436C145.322 216.276 145.31 216.936 145.286 217.416C145.262 217.896 145.214 218.256 145.142 218.496C145.094 218.736 145.01 218.88 144.89 218.928C144.794 218.976 144.674 219 144.53 219H138.59C138.446 219 138.326 218.976 138.23 218.928C138.11 218.88 138.026 218.748 137.978 218.532C137.906 218.292 137.858 217.944 137.834 217.488C137.81 217.032 137.798 216.408 137.798 215.616C137.798 214.776 137.81 214.116 137.834 213.636C137.858 213.156 137.906 212.808 137.978 212.592C138.026 212.352 138.11 212.208 138.23 212.16C138.326 212.088 138.446 212.052 138.59 212.052H144.53ZM150.471 212.052C150.615 212.052 150.735 212.088 150.831 212.16C150.951 212.208 151.035 212.34 151.083 212.556C151.155 212.772 151.203 213.108 151.227 213.564C151.251 214.02 151.263 214.644 151.263 215.436C151.263 216.276 151.251 216.936 151.227 217.416C151.203 217.896 151.155 218.256 151.083 218.496C151.035 218.736 150.951 218.88 150.831 218.928C150.735 218.976 150.615 219 150.471 219H144.531C144.387 219 144.267 218.976 144.171 218.928C144.051 218.88 143.967 218.748 143.919 218.532C143.847 218.292 143.799 217.944 143.775 217.488C143.751 217.032 143.739 216.408 143.739 215.616C143.739 214.776 143.751 214.116 143.775 213.636C143.799 213.156 143.847 212.808 143.919 212.592C143.967 212.352 144.051 212.208 144.171 212.16C144.267 212.088 144.387 212.052 144.531 212.052H150.471ZM156.413 212.052C156.557 212.052 156.677 212.088 156.773 212.16C156.893 212.208 156.977 212.34 157.025 212.556C157.097 212.772 157.145 213.108 157.169 213.564C157.193 214.02 157.205 214.644 157.205 215.436C157.205 216.276 157.193 216.936 157.169 217.416C157.145 217.896 157.097 218.256 157.025 218.496C156.977 218.736 156.893 218.88 156.773 218.928C156.677 218.976 156.557 219 156.413 219H150.473C150.329 219 150.209 218.976 150.113 218.928C149.993 218.88 149.909 218.748 149.861 218.532C149.789 218.292 149.741 217.944 149.717 217.488C149.693 217.032 149.681 216.408 149.681 215.616C149.681 214.776 149.693 214.116 149.717 213.636C149.741 213.156 149.789 212.808 149.861 212.592C149.909 212.352 149.993 212.208 150.113 212.16C150.209 212.088 150.329 212.052 150.473 212.052H156.413ZM162.354 212.052C162.498 212.052 162.618 212.088 162.714 212.16C162.834 212.208 162.918 212.34 162.966 212.556C163.038 212.772 163.086 213.108 163.11 213.564C163.134 214.02 163.146 214.644 163.146 215.436C163.146 216.276 163.134 216.936 163.11 217.416C163.086 217.896 163.038 218.256 162.966 218.496C162.918 218.736 162.834 218.88 162.714 218.928C162.618 218.976 162.498 219 162.354 219H156.414C156.27 219 156.15 218.976 156.054 218.928C155.934 218.88 155.85 218.748 155.802 218.532C155.73 218.292 155.682 217.944 155.658 217.488C155.634 217.032 155.622 216.408 155.622 215.616C155.622 214.776 155.634 214.116 155.658 213.636C155.682 213.156 155.73 212.808 155.802 212.592C155.85 212.352 155.934 212.208 156.054 212.16C156.15 212.088 156.27 212.052 156.414 212.052H162.354ZM164.551 212.052C164.695 212.052 164.827 212.004 164.947 211.908C165.067 211.788 165.127 211.644 165.127 211.476V206.112H171.643V212.052C171.643 213.204 171.475 214.212 171.139 215.076C170.827 215.94 170.383 216.66 169.807 217.236C169.231 217.812 168.535 218.256 167.719 218.568C166.927 218.856 166.063 219 165.127 219H162.355C162.211 219 162.091 218.976 161.995 218.928C161.875 218.88 161.791 218.748 161.743 218.532C161.671 218.292 161.623 217.944 161.599 217.488C161.575 217.032 161.563 216.408 161.563 215.616C161.563 214.776 161.575 214.116 161.599 213.636C161.623 213.156 161.671 212.808 161.743 212.592C161.791 212.352 161.875 212.208 161.995 212.16C162.091 212.088 162.211 212.052 162.355 212.052H164.551ZM170.491 225.912H163.939V220.944H170.491V225.912ZM173.844 197.04H180.396V219H173.844V197.04ZM195.243 212.052C195.387 212.052 195.507 212.088 195.603 212.16C195.723 212.208 195.807 212.34 195.855 212.556C195.927 212.772 195.975 213.108 195.999 213.564C196.023 214.02 196.035 214.644 196.035 215.436C196.035 216.276 196.023 216.936 195.999 217.416C195.975 217.896 195.927 218.256 195.855 218.496C195.807 218.736 195.723 218.88 195.603 218.928C195.507 218.976 195.387 219 195.243 219H193.479C192.231 219 191.175 218.82 190.311 218.46C189.471 218.076 188.787 217.572 188.259 216.948C187.731 216.324 187.347 215.592 187.107 214.752C186.867 213.888 186.747 212.988 186.747 212.052V197.04H193.299V211.476C193.299 211.86 193.491 212.052 193.875 212.052H195.243ZM201.167 212.052C201.311 212.052 201.431 212.088 201.527 212.16C201.647 212.208 201.731 212.34 201.779 212.556C201.851 212.772 201.899 213.108 201.923 213.564C201.947 214.02 201.959 214.644 201.959 215.436C201.959 216.276 201.947 216.936 201.923 217.416C201.899 217.896 201.851 218.256 201.779 218.496C201.731 218.736 201.647 218.88 201.527 218.928C201.431 218.976 201.311 219 201.167 219H195.227C195.083 219 194.963 218.976 194.867 218.928C194.747 218.88 194.663 218.748 194.615 218.532C194.543 218.292 194.495 217.944 194.471 217.488C194.447 217.032 194.435 216.408 194.435 215.616C194.435 214.776 194.447 214.116 194.471 213.636C194.495 213.156 194.543 212.808 194.615 212.592C194.663 212.352 194.747 212.208 194.867 212.16C194.963 212.088 195.083 212.052 195.227 212.052H201.167ZM207.108 212.052C207.252 212.052 207.372 212.088 207.468 212.16C207.588 212.208 207.672 212.34 207.72 212.556C207.792 212.772 207.84 213.108 207.864 213.564C207.888 214.02 207.9 214.644 207.9 215.436C207.9 216.276 207.888 216.936 207.864 217.416C207.84 217.896 207.792 218.256 207.72 218.496C207.672 218.736 207.588 218.88 207.468 218.928C207.372 218.976 207.252 219 207.108 219H201.168C201.024 219 200.904 218.976 200.808 218.928C200.688 218.88 200.604 218.748 200.556 218.532C200.484 218.292 200.436 217.944 200.412 217.488C200.388 217.032 200.376 216.408 200.376 215.616C200.376 214.776 200.388 214.116 200.412 213.636C200.436 213.156 200.484 212.808 200.556 212.592C200.604 212.352 200.688 212.208 200.808 212.16C200.904 212.088 201.024 212.052 201.168 212.052H207.108ZM213.049 212.052C213.193 212.052 213.313 212.088 213.409 212.16C213.529 212.208 213.613 212.34 213.661 212.556C213.733 212.772 213.781 213.108 213.805 213.564C213.829 214.02 213.841 214.644 213.841 215.436C213.841 216.276 213.829 216.936 213.805 217.416C213.781 217.896 213.733 218.256 213.661 218.496C213.613 218.736 213.529 218.88 213.409 218.928C213.313 218.976 213.193 219 213.049 219H207.109C206.965 219 206.845 218.976 206.749 218.928C206.629 218.88 206.545 218.748 206.497 218.532C206.425 218.292 206.377 217.944 206.353 217.488C206.329 217.032 206.317 216.408 206.317 215.616C206.317 214.776 206.329 214.116 206.353 213.636C206.377 213.156 206.425 212.808 206.497 212.592C206.545 212.352 206.629 212.208 206.749 212.16C206.845 212.088 206.965 212.052 207.109 212.052H213.049ZM218.991 212.052C219.135 212.052 219.255 212.088 219.351 212.16C219.471 212.208 219.555 212.34 219.603 212.556C219.675 212.772 219.723 213.108 219.747 213.564C219.771 214.02 219.783 214.644 219.783 215.436C219.783 216.276 219.771 216.936 219.747 217.416C219.723 217.896 219.675 218.256 219.603 218.496C219.555 218.736 219.471 218.88 219.351 218.928C219.255 218.976 219.135 219 218.991 219H213.051C212.907 219 212.787 218.976 212.691 218.928C212.571 218.88 212.487 218.748 212.439 218.532C212.367 218.292 212.319 217.944 212.295 217.488C212.271 217.032 212.259 216.408 212.259 215.616C212.259 214.776 212.271 214.116 212.295 213.636C212.319 213.156 212.367 212.808 212.439 212.592C212.487 212.352 212.571 212.208 212.691 212.16C212.787 212.088 212.907 212.052 213.051 212.052H218.991ZM224.932 212.052C225.076 212.052 225.196 212.088 225.292 212.16C225.412 212.208 225.496 212.34 225.544 212.556C225.616 212.772 225.664 213.108 225.688 213.564C225.712 214.02 225.724 214.644 225.724 215.436C225.724 216.276 225.712 216.936 225.688 217.416C225.664 217.896 225.616 218.256 225.544 218.496C225.496 218.736 225.412 218.88 225.292 218.928C225.196 218.976 225.076 219 224.932 219H218.992C218.848 219 218.728 218.976 218.632 218.928C218.512 218.88 218.428 218.748 218.38 218.532C218.308 218.292 218.26 217.944 218.236 217.488C218.212 217.032 218.2 216.408 218.2 215.616C218.2 214.776 218.212 214.116 218.236 213.636C218.26 213.156 218.308 212.808 218.38 212.592C218.428 212.352 218.512 212.208 218.632 212.16C218.728 212.088 218.848 212.052 218.992 212.052H224.932ZM230.874 212.052C231.018 212.052 231.138 212.088 231.234 212.16C231.354 212.208 231.438 212.34 231.486 212.556C231.558 212.772 231.606 213.108 231.63 213.564C231.654 214.02 231.666 214.644 231.666 215.436C231.666 216.276 231.654 216.936 231.63 217.416C231.606 217.896 231.558 218.256 231.486 218.496C231.438 218.736 231.354 218.88 231.234 218.928C231.138 218.976 231.018 219 230.874 219H224.934C224.79 219 224.67 218.976 224.574 218.928C224.454 218.88 224.37 218.748 224.322 218.532C224.25 218.292 224.202 217.944 224.178 217.488C224.154 217.032 224.142 216.408 224.142 215.616C224.142 214.776 224.154 214.116 224.178 213.636C224.202 213.156 224.25 212.808 224.322 212.592C224.37 212.352 224.454 212.208 224.574 212.16C224.67 212.088 224.79 212.052 224.934 212.052H230.874ZM236.815 212.052C236.959 212.052 237.079 212.088 237.175 212.16C237.295 212.208 237.379 212.34 237.427 212.556C237.499 212.772 237.547 213.108 237.571 213.564C237.595 214.02 237.607 214.644 237.607 215.436C237.607 216.276 237.595 216.936 237.571 217.416C237.547 217.896 237.499 218.256 237.427 218.496C237.379 218.736 237.295 218.88 237.175 218.928C237.079 218.976 236.959 219 236.815 219H230.875C230.731 219 230.611 218.976 230.515 218.928C230.395 218.88 230.311 218.748 230.263 218.532C230.191 218.292 230.143 217.944 230.119 217.488C230.095 217.032 230.083 216.408 230.083 215.616C230.083 214.776 230.095 214.116 230.119 213.636C230.143 213.156 230.191 212.808 230.263 212.592C230.311 212.352 230.395 212.208 230.515 212.16C230.611 212.088 230.731 212.052 230.875 212.052H236.815ZM238.184 212.052C238.352 212.052 238.496 212.004 238.616 211.908C238.736 211.788 238.796 211.644 238.796 211.476V206.112H245.348V211.476C245.348 211.86 245.54 212.052 245.924 212.052H247.292C247.436 212.052 247.556 212.088 247.652 212.16C247.772 212.208 247.856 212.34 247.904 212.556C247.976 212.772 248.024 213.108 248.048 213.564C248.072 214.02 248.084 214.644 248.084 215.436C248.084 216.276 248.072 216.936 248.048 217.416C248.024 217.896 247.976 218.256 247.904 218.496C247.856 218.736 247.772 218.88 247.652 218.928C247.556 218.976 247.436 219 247.292 219H246.176C245.36 219 244.604 218.928 243.908 218.784C243.236 218.64 242.648 218.316 242.144 217.812C241.568 218.316 240.98 218.64 240.38 218.784C239.804 218.928 239.276 219 238.796 219H236.816C236.672 219 236.552 218.976 236.456 218.928C236.336 218.88 236.252 218.748 236.204 218.532C236.132 218.292 236.084 217.944 236.06 217.488C236.036 217.032 236.024 216.408 236.024 215.616C236.024 214.776 236.036 214.116 236.06 213.636C236.084 213.156 236.132 212.808 236.204 212.592C236.252 212.352 236.336 212.208 236.456 212.16C236.552 212.088 236.672 212.052 236.816 212.052H238.184ZM247.112 225.912H236.816V220.944H247.112V225.912ZM248.661 212.052C248.829 212.052 248.973 212.004 249.093 211.908C249.213 211.788 249.273 211.644 249.273 211.476V197.04H255.825V211.476C255.825 211.86 256.017 212.052 256.401 212.052H257.769C257.913 212.052 258.033 212.088 258.129 212.16C258.249 212.208 258.333 212.34 258.381 212.556C258.453 212.772 258.501 213.108 258.525 213.564C258.549 214.02 258.561 214.644 258.561 215.436C258.561 216.276 258.549 216.936 258.525 217.416C258.501 217.896 258.453 218.256 258.381 218.496C258.333 218.736 258.249 218.88 258.129 218.928C258.033 218.976 257.913 219 257.769 219H256.653C255.837 219 255.081 218.928 254.385 218.784C253.713 218.64 253.125 218.316 252.621 217.812C252.045 218.316 251.457 218.64 250.857 218.784C250.281 218.928 249.753 219 249.273 219H247.293C247.149 219 247.029 218.976 246.933 218.928C246.813 218.88 246.729 218.748 246.681 218.532C246.609 218.292 246.561 217.944 246.537 217.488C246.513 217.032 246.501 216.408 246.501 215.616C246.501 214.776 246.513 214.116 246.537 213.636C246.561 213.156 246.609 212.808 246.681 212.592C246.729 212.352 246.813 212.208 246.933 212.16C247.029 212.088 247.149 212.052 247.293 212.052H248.661ZM259.966 212.052C260.11 212.052 260.242 212.004 260.362 211.908C260.482 211.788 260.542 211.644 260.542 211.476V206.112H267.058V212.052C267.058 213.204 266.89 214.212 266.554 215.076C266.242 215.94 265.798 216.66 265.222 217.236C264.646 217.812 263.95 218.256 263.134 218.568C262.342 218.856 261.478 219 260.542 219H257.77C257.626 219 257.506 218.976 257.41 218.928C257.29 218.88 257.206 218.748 257.158 218.532C257.086 218.292 257.038 217.944 257.014 217.488C256.99 217.032 256.978 216.408 256.978 215.616C256.978 214.776 256.99 214.116 257.014 213.636C257.038 213.156 257.086 212.808 257.158 212.592C257.206 212.352 257.29 212.208 257.41 212.16C257.506 212.088 257.626 212.052 257.77 212.052H259.966ZM268.066 225.912H257.77V220.944H268.066V225.912ZM269.258 197.04H275.81V219H269.258V197.04Z" fill="url(#paint3_linear_65_2)"/>
<defs>
<linearGradient id="paint0_linear_65_2" x1="173.397" y1="73.8638" x2="22.4877" y2="73.3635" gradientUnits="userSpaceOnUse">
<stop stop-color="#60CBC1"/>
<stop offset="1" stop-color="#19666C"/>
</linearGradient>
<linearGradient id="paint1_linear_65_2" x1="173.397" y1="73.8638" x2="22.4877" y2="73.3635" gradientUnits="userSpaceOnUse">
<stop stop-color="#60CBC1"/>
<stop offset="1" stop-color="#19666C"/>
</linearGradient>
<linearGradient id="paint2_linear_65_2" x1="173.397" y1="73.8638" x2="22.4877" y2="73.3635" gradientUnits="userSpaceOnUse">
<stop stop-color="#60CBC1"/>
<stop offset="1" stop-color="#19666C"/>
</linearGradient>
<linearGradient id="paint3_linear_65_2" x1="173.397" y1="209.398" x2="22.5026" y2="207.819" gradientUnits="userSpaceOnUse">
<stop stop-color="#60CBC1"/>
<stop offset="1" stop-color="#19666C"/>
</linearGradient>
</defs>
</svg>
